<svg enable-background="new 0 0 176 144.7" viewBox="0 0 176 144.7" xmlns="http://www.w3.org/2000/svg"><path d="m0 31.6c0-9.4 2.7-17.4 8.5-23.1l10 10c-11.1 11.1-1.4 45.6 30.3 77.3s66.2 41.4 77.3 30.3l10 10c-18.8 18.8-61.5 5.4-97.3-30.3-24.8-24.9-38.8-53-38.8-74.2z" fill="#009a46"/><path d="m63.1 144.7c-9.4 0-17.4-2.7-23.1-8.5l10-10c11.1 11.1 45.6 1.4 77.3-30.3s41.4-66.2 30.3-77.3l10-10c18.8 18.8 5.4 61.5-30.3 97.3-24.9 24.8-53.1 38.8-74.2 38.8z" fill="#ff5805"/><path d="m140.5 91.6c-6.1-17.5-18.5-36.2-34.9-52.6-35.8-35.8-78.5-49.1-97.3-30.4-1.3 1.4-.1 4.7 2.6 7.4s6.1 3.9 7.4 2.6c11.1-11.1 45.6-1.4 77.3 30.3 15 15 26.2 31.8 31.6 47.3 4.7 13.6 4.3 24.6-1.2 30.1-1.3 1.3-.2 4.6 2.6 7.4s6.1 3.9 7.4 2.6c9.6-9.7 11.2-25.6 4.5-44.7z" fill="#f5afcb"/><path d="m167.5 8.6c-9.6-9.6-25.5-11.2-44.6-4.6-17.5 6.1-36.2 18.5-52.6 34.9-35.8 35.8-49.1 78.5-30.3 97.3 1.3 1.3 4.7.2 7.4-2.6s3.9-6.1 2.6-7.4c-11.1-11.1-1.4-45.6 30.3-77.3 15-15 31.8-26.2 47.2-31.6 13.6-4.7 24.6-4.3 30.1 1.2 1.3 1.3 4.6.2 7.4-2.6s3.9-5.9 2.5-7.3z" fill="#ff9b00"/></svg>